<?xml version="1.0" standalone="no"?>
<!DOCTYPE svg PUBLIC "-//W3C//DTD SVG 20010904//EN"
 "http://www.w3.org/TR/2001/REC-SVG-20010904/DTD/svg10.dtd">
<svg version="1.0" xmlns="http://www.w3.org/2000/svg"
 width="900.000000pt" height="900.000000pt" viewBox="0 0 900.000000 900.000000"
 preserveAspectRatio="xMidYMid meet">
<metadata>
Created by potrace 1.14, written by Peter Selinger 2001-2017
</metadata>
<g transform="translate(0.000000,900.000000) scale(0.100000,-0.100000)"
fill="#000000" stroke="none">
<path d="M4327 8994 c-1 -1 -55 -5 -119 -8 -65 -4 -128 -9 -140 -11 -13 -2
-50 -6 -83 -9 -33 -4 -71 -8 -85 -11 -14 -2 -59 -9 -100 -14 -84 -12 -104 -16
-205 -37 -38 -9 -81 -18 -95 -20 -14 -3 -52 -12 -85 -21 -33 -8 -68 -17 -79
-19 -105 -20 -455 -144 -651 -231 -266 -117 -657 -341 -820 -470 -42 -33 -46
-35 -85 -63 -19 -14 -91 -72 -160 -129 -580 -484 -1030 -1105 -1303 -1801 -81
-207 -156 -440 -192 -600 -22 -101 -65 -317 -71 -360 -10 -78 -11 -90 -18
-135 -36 -245 -42 -817 -11 -1030 2 -16 7 -52 10 -80 19 -161 53 -347 96 -523
358 -1463 1427 -2651 2849 -3165 111 -40 315 -103 363 -112 9 -2 21 -6 25 -9
5 -3 24 -8 43 -11 19 -3 59 -12 89 -20 30 -8 69 -16 85 -19 17 -3 40 -8 51
-10 12 -2 37 -7 55 -10 19 -3 43 -7 54 -10 11 -2 43 -7 70 -11 28 -4 61 -9 75
-11 27 -4 95 -12 210 -24 80 -9 805 -6 855 3 17 3 71 11 120 17 110 14 373 58
400 67 11 4 22 7 25 8 3 0 23 5 45 10 22 4 45 9 50 10 42 9 191 53 295 87 549
178 1073 468 1505 832 256 216 566 547 736 785 111 156 162 234 231 351 44 74
84 142 89 150 34 55 147 290 202 420 92 218 209 577 233 719 3 14 9 42 14 61
5 19 12 49 14 65 3 17 8 40 10 51 2 12 7 37 10 55 3 19 8 45 10 58 5 22 8 44
21 151 3 25 8 55 10 68 27 156 28 882 1 1028 -2 10 -7 46 -10 79 -6 51 -29
192 -51 310 -13 65 -67 284 -87 350 -12 39 -23 75 -24 80 -11 45 -84 250 -125
353 -180 445 -444 879 -760 1248 -229 267 -594 597 -853 770 -33 21 -76 50
-96 64 -204 136 -568 326 -795 415 -253 99 -518 179 -745 224 -30 6 -66 14
-80 17 -39 8 -131 23 -180 30 -25 3 -53 8 -62 9 -9 2 -48 7 -85 10 -37 4 -75
9 -84 10 -60 11 -601 28 -612 19z"/>
</g>
</svg>
