<svg width="44" height="34" viewBox="0 0 44 34" fill="none" xmlns="http://www.w3.org/2000/svg">
<path d="M40.8964 18.8622C40.0094 19.7761 39.1397 20.6995 37.9459 21.3161C39.2262 23.961 38.4693 26.8653 34.8762 29.1554C30.9537 31.6555 26.9474 32.2483 23.6667 32.2483V22.184C23.8285 22.1848 23.9887 22.1856 24.1474 22.1856C28.2941 22.1856 33.6209 21.6929 37.264 19.3473C38.1503 18.7769 38.9371 18.0968 39.5826 17.2872C39.6965 17.1444 39.8066 16.9969 39.9122 16.8463C42.808 12.6806 42.6812 8.37763 37.7546 4.34061C33.8221 1.11789 27.4981 -0.299696 21.582 0.0525435C7.6452 0.881757 0.721234 6.15279 0.144047 11.9385C0.05595 12.821 -0.0199956 13.6369 0.241257 14.3837C0.683261 15.6452 1.5855 16.7192 2.81733 17.6284C2.88568 17.6786 2.95404 17.7288 3.02466 17.7775C3.07555 17.8136 3.12795 17.8489 3.18035 17.8842C1.35386 20.2816 0.492637 22.5017 0.242017 23.8942C-0.94957 30.4997 8.99855 33.0461 18.1014 33.7349V32.2483C10.5532 31.8608 3.46287 27.6229 3.43553 24.4551C3.42136 22.8135 4.7866 21.5321 6.96093 19.7419C11.0164 21.2128 16.2217 21.8992 20.884 22.111V33.8918C21.8417 33.9279 22.7743 33.9444 23.6667 33.9444C28.9996 33.9444 38.7594 33.4792 41.4243 27.3413C42.9736 23.7734 42.5654 21.3422 41.1862 19.2021L40.8964 18.8622ZM32.0169 5.80291C34.3059 7.28639 35.5529 8.98405 35.9068 10.1726C36.2714 11.3987 36.1947 12.65 35.7656 13.8448C35.3927 13.6385 34.9985 13.4447 34.5854 13.265C33.791 12.9191 32.9267 12.621 32.0169 12.366C31.1253 12.1158 30.1912 11.9063 29.2343 11.7353C28.9282 11.6804 28.6206 11.6302 28.3108 11.5823V4.00798C28.629 4.12016 28.9373 4.23784 29.2343 4.35943C30.2929 4.79404 31.2187 5.28514 32.0169 5.80291ZM9.82635 17.6904C8.40921 16.7247 7.33458 15.5526 6.76195 14.1884C6.52424 13.6228 6.37235 13.0234 6.31919 12.3919C5.89009 7.30208 11.8632 2.76298 18.9444 2.64217C21.4339 2.59981 23.6219 2.82574 25.5281 3.23054V11.2528C24.5454 11.1689 23.5695 11.1171 22.6232 11.0928C16.4511 10.9382 12.0106 11.8012 8.80337 13.1638C9.16259 14.5736 10.1043 15.7747 11.4349 16.7521C14.6945 14.9831 18.5639 13.6565 22.2754 13.6471C24.9669 13.64 27.2893 13.9515 29.2601 14.4622C29.2722 14.4724 29.2874 14.4794 29.3041 14.4794H29.3269C30.7699 14.8584 32.0245 15.344 33.0953 15.8915C33.4743 16.0853 33.8312 16.2869 34.1647 16.494C32.1453 18.8067 28.7725 20.5468 24.9768 20.8637C19.4844 21.3226 13.5036 20.1969 9.82635 17.6904Z" fill="black"/>
</svg>
